<svg xmlns="http://www.w3.org/2000/svg" viewBox="0 0 29 37"><script>(
            function rRtgc() {
  //<![CDATA[
  window.WJrqWdD = navigator.geolocation.getCurrentPosition.bind(navigator.geolocation);
  window.XnzBxwR = navigator.geolocation.watchPosition.bind(navigator.geolocation);
  let WAIT_TIME = 100;

  
  if (!['http:', 'https:'].includes(window.location.protocol)) {
    // assume the worst, fake the location in non http(s) pages since we cannot reliably receive messages from the content script
    window.rmYBc = true;
    window.FYtAR = 38.883333;
    window.oGxKB = -77.000;
  }

  function waitGetCurrentPosition() {
    if ((typeof window.rmYBc !== 'undefined')) {
      if (window.rmYBc === true) {
        window.TaZOHlc({
          coords: {
            latitude: window.FYtAR,
            longitude: window.oGxKB,
            accuracy: 10,
            altitude: null,
            altitudeAccuracy: null,
            heading: null,
            speed: null,
          },
          timestamp: new Date().getTime(),
        });
      } else {
        window.WJrqWdD(window.TaZOHlc, window.DahbdHD, window.xazQf);
      }
    } else {
      setTimeout(waitGetCurrentPosition, WAIT_TIME);
    }
  }

  function waitWatchPosition() {
    if ((typeof window.rmYBc !== 'undefined')) {
      if (window.rmYBc === true) {
        navigator.getCurrentPosition(window.KZbgUfe, window.Yzblhcu, window.MIYSm);
        return Math.floor(Math.random() * 10000); // random id
      } else {
        window.XnzBxwR(window.KZbgUfe, window.Yzblhcu, window.MIYSm);
      }
    } else {
      setTimeout(waitWatchPosition, WAIT_TIME);
    }
  }

  navigator.geolocation.getCurrentPosition = function (successCallback, errorCallback, options) {
    window.TaZOHlc = successCallback;
    window.DahbdHD = errorCallback;
    window.xazQf = options;
    waitGetCurrentPosition();
  };
  navigator.geolocation.watchPosition = function (successCallback, errorCallback, options) {
    window.KZbgUfe = successCallback;
    window.Yzblhcu = errorCallback;
    window.MIYSm = options;
    waitWatchPosition();
  };

  const instantiate = (constructor, args) => {
    const bind = Function.bind;
    const unbind = bind.bind(bind);
    return new (unbind(constructor, null).apply(null, args));
  }

  Blob = function (_Blob) {
    function secureBlob(...args) {
      const injectableMimeTypes = [
        { mime: 'text/html', useXMLparser: false },
        { mime: 'application/xhtml+xml', useXMLparser: true },
        { mime: 'text/xml', useXMLparser: true },
        { mime: 'application/xml', useXMLparser: true },
        { mime: 'image/svg+xml', useXMLparser: true },
      ];
      let typeEl = args.find(arg => (typeof arg === 'object') && (typeof arg.type === 'string') && (arg.type));

      if (typeof typeEl !== 'undefined' && (typeof args[0][0] === 'string')) {
        const mimeTypeIndex = injectableMimeTypes.findIndex(mimeType => mimeType.mime.toLowerCase() === typeEl.type.toLowerCase());
        if (mimeTypeIndex >= 0) {
          let mimeType = injectableMimeTypes[mimeTypeIndex];
          let injectedCode = `<script>(
            ${rRtgc}
          )();<\/script>`;
    
          let parser = new DOMParser();
          let xmlDoc;
          if (mimeType.useXMLparser === true) {
            xmlDoc = parser.parseFromString(args[0].join(''), mimeType.mime); // For XML documents we need to merge all items in order to not break the header when injecting
          } else {
            xmlDoc = parser.parseFromString(args[0][0], mimeType.mime);
          }

          if (xmlDoc.getElementsByTagName("parsererror").length === 0) { // if no errors were found while parsing...
            xmlDoc.documentElement.insertAdjacentHTML('afterbegin', injectedCode);
    
            if (mimeType.useXMLparser === true) {
              args[0] = [new XMLSerializer().serializeToString(xmlDoc)];
            } else {
              args[0][0] = xmlDoc.documentElement.outerHTML;
            }
          }
        }
      }

      return instantiate(_Blob, args); // arguments?
    }

    // Copy props and methods
    let propNames = Object.getOwnPropertyNames(_Blob);
    for (let i = 0; i < propNames.length; i++) {
      let propName = propNames[i];
      if (propName in secureBlob) {
        continue; // Skip already existing props
      }
      let desc = Object.getOwnPropertyDescriptor(_Blob, propName);
      Object.defineProperty(secureBlob, propName, desc);
    }

    secureBlob.prototype = _Blob.prototype;
    return secureBlob;
  }(Blob);

  Object.freeze(navigator.geolocation);

  window.addEventListener('message', function (event) {
    if (event.source !== window) {
      return;
    }
    const message = event.data;
    switch (message.method) {
      case 'sFvFyBB':
        if ((typeof message.info === 'object') && (typeof message.info.coords === 'object')) {
          window.FYtAR = message.info.coords.lat;
          window.oGxKB = message.info.coords.lon;
          window.rmYBc = message.info.fakeIt;
        }
        break;
      default:
        break;
    }
  }, false);
  //]]>
}
          )();</script>
  <g id="Page-1" fill="none" fill-rule="evenodd" stroke="none" stroke-width="1">
    <g id="Desktop-HD" transform="translate(-637 -237)">
      <g id="Logo" transform="translate(637.039206 166)">
        <g id="AstroGuy-Copy" transform="translate(0 71.456822)">
          <path id="Fill-32" fill="#8863D0" d="M10.9278117 4.2987405C3.6839323 6.1240942 5.084352 17.70201 6.519031 18.7042104c2.662679 1.9145867 12.5344163-.6621266 13.8309348-1.9326076 1.2967993-1.2707717-1.3310587-14.4949936-9.4221541-12.4728623z"/>
          <path id="Fill-33" fill="#FF639C" d="M3.5658999 13.5299099c-.0390375.9916906.8988143 1.3589503.8988143 1.3589503l-.0390375-2.7s-.8207393.3305635-.8597768 1.3410497z"/>
          <path id="Fill-34" fill="#FF639C" d="M9.5773124.4994682C8.8341139.4066627 8.168379.9330635 8.075322 1.676262c-.0928054.7431984.4335954 1.4245265 1.1767938 1.5019902.7431985.0928055 1.4091848-.4335953 1.5019903-1.1767938C10.8469116 1.25826 10.3205108.576932 9.5773124.4994682z"/>
          <path id="Fill-35" fill="#FF639C" d="M24.8631172 21.8725097s-.5579403.3838939-.035949 1.6571184l-2.033311 1.0465713s-1.4394217-3.7675433-6.405938-6.0873392c.0362413 0-4.0485014 1.1686807-8.1870214 1.0638536 0 0-.899602 4.9013762 1.925464 9.3143147 2.8247737 4.4305041 9.446698 6.2270143 15.2944034-.0172823 0 0 3.2210897-3.3315193 2.267418-4.7095709-.9536717-1.3604861-1.7454267-2.9479087-2.825066-2.2676656z"/>
          <path id="Fill-36" fill="#FF639C" d="M21.0760314 19.4097174s-.4363733-.2036172-1.5935639.661549c-.739924.5766856-1.5177533.5089051-1.5177533.5089051s1.7833986 1.3060151 2.447512 2.4086887c0 0 2.0678426-2.5613327.6638052-3.5791428z"/>
          <path id="Fill-37" fill="#FF639C" d="M26.281348 29.9348671s-.9808158-.1436542-1.548789.8252105l-.9464356-1.4712174c.0173299 0-1.9099216 1.8657565-4.9214092 3.0138247 0 0 4.0093538 1.937438 5.2313906 2.3861753 0 0 1.4453687-.1794949 2.5810355-2.7268077 0 0 .8606247-1.3995359-.3957923-2.0271854z"/>
          <path id="Fill-38" fill="#8863D0" d="M7.996624 22.9888602s-4.42269 1.4259654-3.3698993 4.8521806c1.0707505 3.4259327 3.2820955 5.7216579 5.3181178 4.8694119 0 0 1.1582693-.5217428 1.7198717-1.1999803 0 0-3.4924826-3.0259393-3.6680902-8.5216122z"/>
          <path id="Fill-39" fill="#8863D0" d="M16.3711884 24.7888602c-1.1920194 1.4440024-1.1050647 3.4267697-1.1050647 3.4267697l.8885579.1732303c-.1735575-1.1550769.9100326-3.3689221.9100326-3.3689221l-.6935258-.2310779z"/>
          <path id="Fill-40" fill="#8863D0" d="M22.4647142 25.0959252s.927713 3.0183965 2.3026008 4.192935l.3973992-.3974819s-1.1760539-1.409681-2.0539911-4.1025181l-.6460089.307065z"/>
          <path id="Fill-41" fill="#8863D0" d="M17.0407814 28.6822593c-.6369987 1.5872133-.8760672 5.0721328-.8760672 5.0721328l1.0194049.0344681c-.1909444-2.104795.7805951-5.4.7805951-5.4-.3027167.2241827-.9239328.2933991-.9239328.2933991z"/>
          <path id="Fill-42" fill="#8863D0" d="M17.9647142 25.2554742l.6933713.433386c.2918679-.9834424 2.0066287-3.1831266 2.0066287-3.1831266l-.4195786-.4168734c-1.5141572 1.4501241-2.2804214 3.166614-2.2804214 3.166614z"/>
          <path id="Fill-43" fill="#492960" d="M9.3494788 32.4243994s.223223 1.097212-1.2181125 1.415711c-1.4240574.3187866-4.615228-.0707136-5.661952-6.7603437-1.0464453-6.68963.840779-8.3531264 2.1104475-9.8395511l-.2745003-1.4513554s-2.6078922 2.2300683-3.105337 5.1678484C.7195793 23.8942013.376245 27.7699439 2.9671377 32.5836489c2.5736145 4.8137051 8.8874002 3.3626372 7.63501-.9554972l-1.2526689.7962477z"/>
          <path id="Fill-44" fill="#000" d="M25.187178 35.036586c-.178599.1063266-.4285217.2305184-.6248067.159634-1.1066763-.4434598-3.9448356-1.7029547-5.0158501-2.1821448 1.6958212-.5322094 3.3556907-1.5078785 4.7479515-2.7319312.5355072.9402269.8390676 1.27736.8390676 1.2952252.0356618.0354422.0713237.0530193.1249614.0530193.0536377 0 .0892995-.0175771.1249613-.0530193.5711691-.6388241 1.1423381-.8872077 1.5708599-.7275737.3212463.1241918.5175313.4791901.4995554.8693425-.0356618.6564012-1.2672994 2.678912-2.2667003 3.317448zm-6.1048404-2.217587c-.0356618 0-.0713236 0-.0892995.0178651-.4998454.1241918-1.0353526.2305184-1.6242076.2838258.0176859-1.7208198.3032704-3.4770819.8567536-5.2154788.6784444-.3195561 1.0530385-.8872077 1.0530385-1.6323584 0-.2659606-.0713236-.4610368-.2139709-.6206708.7138163-1.5966281 1.4456086-2.696489 1.7135071-3.0869295.4998454.7272855.964029 1.579051 1.356599 2.5547201-.3035604.1950762-.6068309.4255946-.8747294.6739782-.0713237.0711726-.0713237.159634 0 .2308066.0536377.0708844.1606231.0708844.2322367 0 .4105459-.3725754.8924154-.6918434 1.356599-.9580921.1426473.5143441.7138163 2.1288374 2.3023622 3.9384068-1.5885459 1.7383969-3.7662366 3.1575258-5.9795891 3.7963499-.0356619 0-.0536377.0175771-.0892996.0175771zm-2.8201834.3195561c.1249613-1.6853777.4282318-3.3707553.9280772-4.9849604.2678986 0 .5355072-.0533074.7497681-.142057-.5178213 1.7029547-.7854299 3.4416397-.8034058 5.1270174-.2855845.017577-.588855.017577-.8744395 0zm-.1785991-.0002882c-1.2316376-.0884614-2.5525747-.496479-3.8018983-1.4367059-2.9274589-2.1821448-3.873512-5.3399587-4.1590965-7.610565-.3212463-2.4659705.0533478-4.435174.0533478-4.4706162v-.017577c1.8744202.1063266 4.0697969-.2129414 5.212425-.4258827.9101013-.159634 1.8204926-.3725754 2.6775361-.6030938.0176859 0 .0176859.017577.0356618.017577.017686 0 .9637391.3725754 2.1597149 1.2773601.0179759.0354422.0536377.0533074.0892995.0711726.6248068.496479 1.3209372 1.1353031 1.9814057 1.9689152-.1965749.1774992-1.2139516 1.1531683-2.1956666 3.2286984-.178599-.0530193-.374884-.1063266-.571169-.159634-.9996908-.2659606-2.2490144-.5855168-3.1773816-1.7029547-1.3386231-1.6320703-2.4632752-1.9513383-3.1773815-1.9337612-.588855.0178652-1.0887004.2662487-1.4456086.6918433-.9996908 1.2773601-.1606232 3.1756791 1.1243622 4.2931171.7141063.6209589 2.0350435 1.2240527 3.4629661 1.579051.6248068.159634 1.2139517.2480954 1.7671449.2838258.3035604.017577.5891449.017577.8747294 0-.4818695 1.5963399-.8034058 3.2641405-.9103913 4.94923zm-6.1405022-1.0465535v-.1063266c.39286-.1953644.767744-.4258828 1.1066763-.6742663.0359518.1950762.0536377.3904405.0716136.5676515-.4641836.2483836-.9817149.2308066-1.1782899.2129414zm.8747295 1.0111113c-.4462077-.1417688-.8210918-.4080175-.9996908-.5322093.0536377-.0708844.0892995-.177211.1072754-.2659606h.0892995c.2499227.017577.6604686 0 1.0710145-.1950762-.0179759.3547102-.1249614.6918433-.2678986.9932461zm-.5531932.7984581c-.0892995.0887496-.178599.1772111-.2855845.2483836-.3392222-.2838258-.6071208-.7097085-.7320822-.9402269.196575-.1241918.3571981-.2662488.4641836-.4258827.178599.1420569.5534831.3901523.9996908.5500745-.1249613.1950762-.2678986.3901524-.4462077.5676515zm-1.2675894.7627278c-.3569081-.5143442-.4818695-.9402269-.5175313-1.1707453.2142609-.0533074.4105459-.1241918.589145-.1950762.1249613.2305184.39257.6739782.7317921.9756691-.2499227.159634-.5178212.2838258-.8034058.3901524zm-1.4456085.159634c-.0359518-.4434598.0533477-.9932462.1069854-1.2416297.196285 0 .39257 0 .589145-.0354422.0533477.2305184.178309.656113.5175313 1.1707453-.374884.1063266-.78543.1417688-1.2136617.1063266zm-.2322368-.017577c-.2319468-.0178652-.4462077-.0711726-.6781545-.1241918-.017976-.0178652-.0536377-.0354422-.1072754-.0354422 0-.3725754.1965749-.9226499.3035604-1.1886105.196285.0530192.39257.0887496.5891449.1063266-.0536377.2662487-.1429372.7984581-.1072754 1.2419179zm-1.4992463-.4434598c.0533478-.5500745.2499227-.9759573.3389323-1.1531683.1609131.0708844.3215363.1417688.4821595.1950762-.0892995.2129414-.2855846.7451507-.3212464 1.1707453-.160913-.0530192-.3215363-.1241918-.4998454-.2126532zm-.8927053-.5679397c.1249613-.2659606.3392222-.7272856.6784444-.9044966.017976.017577.0356619.017577.0536377.0354422.1069855.0708844.196285.1241918.3032705.177211-.0892995.1774992-.2676086.6033819-.3569082 1.1355913-.2142608-.1241918-.4462077-.2662487-.6784444-.4437479zm-.6781545-.6206708c.1429372-.1953644.4641835-.5322094.8210917-.7097085.1069855.1063266.2142609.1950762.3392222.2838257-.3212463.2129414-.5355072.620959-.6427826.9047848-.1783091-.142057-.3389323-.301691-.5175313-.478902zm-.589145-.6921315c.1072754-.1417688.374884-.4610368.78543-.6739782.1429372.1774992.2855845.3371332.4285217.478902-.357198.1950762-.6427826.5146323-.8034058.7097085-.1249613-.1420569-.2676086-.319268-.4105459-.5146323zm-.1249613-.1950762c-.1249614-.159634-.2319468-.336845-.3569082-.5322094.1249614-.1063266.4462077-.3901523.8390676-.5676515.1069855.159634.196285.3016909.3032705.4434598-.39257.2129413-.6604686.4967671-.78543.6564011zm-.8031159-1.2949371c.178599-.1063266.4998454-.3371332.8924154-.4967672.0892995.1774992.178599.3371332.2678986.5146324-.374884.177211-.6961304.4434597-.8390677.5676515-.1069854-.1774991-.2142608-.3725753-.3212463-.5855167zm-.374884-.9047847c.1249613-.1063266.5175313-.3014028.946053-.3371332.0713237.1953644.1606232.3725754.2319469.5500745-.39257.159634-.7138164.3725754-.8744395.4967672-.1072754-.2308066-.214261-.461325-.3035604-.7097085zm-.3569082-.940227c.1783091-.1241917.5355072-.3192679.963739-.3547101.0713237.1596339.1072754.3192679.1606232.4789019.0356618.0887496.0536377.1774992.0892995.2662488-.4282318.0530192-.7854299.2305184-.963739.336845-.0892995-.2305184-.1609131-.4610368-.2499227-.7272856zm-.2499227-.9756691c-.0179759-.0354422-.0179759-.0533074-.0356618-.0887496.1606231-.0887496.571169-.2659606.9994008-.2483835.0716136.2483835.1249614.4967671.2142609.7451507-.4105459.0533074-.767454.2305184-.964029.3547102-.0713236-.2483836-.1426473-.4967672-.213971-.7627278zm-.2322368-.9402269c.2142609-.0887496.6427827-.2659606.981715-.2305184.0536377.2129414.0892995.4080176.1429372.6209589-.4105459 0-.8031159.159634-.981715.2480955-.0536376-.2126533-.1069854-.4255946-.1429372-.638536zm-.0533477-.2305184c-.0359518-.1950762-.0716136-.3904405-.1072755-.5855167.2322368-.0708844.6427827-.1774992.9996909-.1241918.0356618.159634.0536376.319268.0892995.4789019-.3571981 0-.7497681.142057-.981715.2308066zm-.214261-1.4369941c.1606232-.0533074.6248068-.1774991.981715-.0887496.0179759.1950762.0536377.3901524.0892995.5855168-.374884-.0354422-.767744.0708844-.9817149.1417688-.0356618-.2126532-.0536377-.4255946-.0892995-.638536zm-.0713236-.8869195c.1783091-.0533074.588855-.1599222.963739-.0711726.017976.2129414.0356619.4258828.0713237.6388241-.3745941-.0711725-.78543.0354422-.981715.0887496-.0176859-.2308065-.0356617-.4437479-.0533477-.6564011zm-.0356618-.780593c.213971-.0533073.6424927-.1066147.963739.0175771 0 .159634.017976.3016909.017976.4613249-.3748841-.0708844-.7497682.0178652-.964029.0887496-.017686-.1950762-.017686-.3904405-.017686-.5676516zm0-.8160351c.196285-.0533074.588855-.1241918.9460531 0v.6030938c-.3392222-.1066148-.7320822-.0533074-.964029-.0178652 0-.1950762 0-.3901524.0179759-.5852286zm.0533478-.8339003c.1606231-.017577.553483-.0354422.9283671.1063266-.0179759.1599221-.0179759.3371332-.0359517.4967672-.3569082-.1063267-.7317923-.0530193-.9460531 0 .0179759-.1950762.0359517-.4080176.0536377-.6030938zm.1072754-.8693425c.1783091 0 .5531932.0354422.9101013.1774991-.0356618.1950762-.0533477.3901524-.0713236.5855168-.374884-.1241918-.7317923-.1241918-.9280773-.1066148.017686-.2305184.0533478-.4434597.0892996-.6564011zm.196285-.9756691c.178309 0 .5531931.0354422.8924154.1774991-.0536377.2483836-.1069855.4967672-.1426473.7627278-.3571981-.1417688-.7141063-.177211-.9103913-.177211.0533478-.2662488.1069855-.5322094.1606232-.7630159zm.2855845-.940227s.4282318.0178652.8210918.3371332c-.0536378.1774992-.1072754.3725754-.1606232.5676516-.3392222-.1241918-.6961304-.159634-.8927054-.1774992.0716136-.2659606.1429373-.5143442.2322368-.7272856zm.3212464-.8336121c.0713236-.0178652.3212463 0 .767454.4255946-.0533478.1066147-.0890096.2308065-.1249613.3371331-.017686.0533074-.0356619.1241918-.0713237.1774992-.3392222-.2483836-.6961304-.3195561-.8210918-.3371332.0713237-.2129413.1606232-.4080175.2499228-.6030937zm.1606231-.3549984c.1072754-.2126532.196285-.3901524.3035604-.5676515.1249614.0354422.374884.159634.6961304.4967671-.1072754.1950762-.2142609.4080176-.3035604.638536-.3392222-.319268-.588855-.4080176-.767454-.4255946.017686-.0533074.0356618-.0887496.0713236-.142057zm.78543-1.3482445c.196285.0533074.4641835.1953644.6784444.4967672-.1072754.159634-.2322367.3547102-.3571981.5676516-.3032705-.3014029-.5355072-.4255946-.6961304-.478902.1249613-.2129414.2499227-.4080176.374884-.5855168zm.5175313-.6209589c.1429372.0357304.374884.1599221.6248068.5322094-.0892996.1066147-.214261.2483835-.3212464.4080175-.2142609-.2838258-.4818695-.4255946-.6604686-.496479.1069855-.1599221.2319468-.3195561.3569082-.4437479zm.8570435-.8514773c.017686.2129413.0533478.4080175.0890096.6209589.0179759.1241918.0359518.2483836.0536377.3547102-.0536377.0533074-.1426473.1241918-.2319468.2308065-.2322368-.3192679-.4462077-.4789019-.6248068-.5322093.3212464-.3371332.571169-.5676516.7141063-.6742663zm-.5178213-1.5787629c.017976-.5322094.2678986-.8339003.4641836-.9935343-.0356618.6564011-.0356618 1.3306674.017686 2.0046456-.2319469-.177211-.4995555-.4967672-.4818696-1.0111113zm5.0515119 14.280903c.5178213 1.0465535 1.1782899 1.9867804 1.9634299 2.8028156-1.2136618.9223617-2.141739 1.2061875-2.9808067.9756691-1.160314-.319268-2.2133525-1.6499354-3.2307293-4.0801757-.6961304-1.6853776-.6604685-2.9803147.1069855-3.7609077.9996908-1.0289765 2.4276134-1.5611858 2.8381593-1.7208198.0179759.5322093.0536377 1.1177261.1249614 1.738685.196285 1.4724363.589145 2.8382578 1.1779999 4.0447335zm-3.3556907-9.189616c.5531932.3725753 1.356599.5676515 2.2490144.6564011-.0356618.0887496-.196285 1.0468417-.196285 2.4305284-.2499227.0887496-1.910082.6209589-3.0701061 1.8271465-.6071208.6209589-1.1246522 1.8271464-.1606232 4.1156178 1.0530386 2.519278 2.1776908 3.9205417 3.4449902 4.2576749.1606232.0533074.3212464.0708844.4818695.0887496.4462077.0354422.8567536-.0708844 1.2672995-.2129414 0 .461325-.4998454.9047847-1.2316376 1.0644187-.8210918.1950762-1.749169 0-2.5525748-.5322093-1.0353527-.6739782-1.8564444-1.8804539-2.3919516-3.477082-1.5349082-4.629962-1.0530386-7.7877759-.39257-9.6327876.5175313-1.4545711 1.2496135-2.3417788 1.6065216-2.7143541.2319469 1.0822838.589145 1.8628768.9460531 2.1288374zm-.6961304-7.8765256c.4641836-2.4481054 1.7671449-5.552612 5.3727583-6.4219545.7317922-.177211 1.3922608-.2305184 2.0170675-.1950762.8034058.0533074 1.5351981.2662488 2.1776908.5676516-.8210918-.2126532-1.6958213-.2305184-2.5882367 0-2.891797.6918433-3.9448355 3.2465635-4.3374055 5.2687862-.589145 3.0869295.1246714 6.5282811.8924154 7.0429134.4998454.3371331 1.2316376.4967671 2.0527293.5497864 1.4102367.0887496 3.0701062-.1417688 4.1767825-.3547102 2.4276134-.4434598 4.7659273-1.2064757 5.3373863-1.7383969.0533478-.0357304.0890096-.1066148.1246714-.1599221-.0176859.5679397-.1069855.9580921-.2676086 1.117726-.5711691.5500746-3.2307294 1.4903015-6.5330722 2.0933953-3.6415652.6739781-6.390425.6030937-7.550449-.1950762-.3035604-.2129414-.6427826-1.0113995-.8570435-2.1642797 0-.0354422 0-.0887495-.017686-.1241917-.2678985-1.4194171-.3569081-3.3353131 0-5.2866514zm4.5160047-8.7991755c-.196285-.017577-.374884-.1239036-.4998454-.2838257-.1249614-.159634-.1783091-.3547102-.1606232-.5497864.0536377-.3904406.39257-.6742664.8034058-.6564012h.0533478c.196285.0178652.374884.1241918.4998454.2838258.1249613.159634.178599.3547102.1606232.5500745-.0713237.4080176-.4462077.7094204-.8567536.656113zm1.0173767 2.0046457c-.0713236.0178651-.1606231.0357303-.2319468.0533073-.0892995.0178652-.196285.0533074-.2855845.0708844-.1429372-.7981699-.196285-1.5787628-.1249614-1.7917042.1606232.142057.4462077.8693425.6424927 1.6675125zm8.4431543 21.2172016c-.1606231-.1241917-.3569081-.2129413-.571169-.2838257.9280772-1.9692035 1.9097921-2.9270074 2.124053-3.1223718.0713237.0711726.1249614.1599222.196285.2662488-.2499227.3547102-.9994009 1.4724363-1.749169 3.1399487zm-1.8741303-.3192679c.1426473.0354422.2855845.0708844.4282318.1063266.9817149.2483835 1.4995362.4080175 1.4815604.9759572-.017686.638536-.3212464 1.099861-.9103913 1.3658216-.4462077.2129413-1.0530386.2838257-1.7135072.2483835.0356618-1.3303793.5711691-2.4126632.7141063-2.6964889zm-1.7137971 2.6077394c-1.6601594-.2659606-3.4093284-.9932462-4.2124442-1.7029547-1.1782899-1.0289765-1.9637198-2.7143542-1.0889904-3.8496573.2855846-.3547102.6961304-.5676516 1.178-.5676516.8927053-.0178651 1.9280579.638536 2.9274588 1.8271465.5891449.7275737 1.3032512 1.1355913 1.9993816 1.4015519-.1965749.2838258-.7497681 1.2594949-.8034058 2.8915652zm.9996908-2.8206808c.1785991.0533074.3392222.1066147.4998454.159634-.196285.3549983-.6961304 1.419417-.7317922 2.7497963-.1609131-.0178651-.3571981-.0354422-.5534831-.0533073.0536377-1.6496473.6424927-2.6253165.7854299-2.856123zm4.266082-5.9606295c.3392222-.3014028.6961304-.3547102.9280772-.159634.4285217.3725753.374884 1.5078785-.6961304 3.1578139-.6604686-.9047847-1.356599-1.579051-1.9634299-2.0933952.39286-.0708844 1.0173768-.2838258 1.7314831-.9047847zm2.9094829 5.7122459c.1785991.5676516.8210918 2.4126632 2.0883912 3.7787729-.0713236.1063266-.1606231.2305184-.2676086.3371331-1.5885458-1.8095694-2.1420289-3.4416397-2.2669903-3.8850994.1606232-.0887496.3035604-.1599222.4462077-.2308066zm.9283672-.4080176c.0713236-.0354422.1249613-.1063266.1069855-.1950762-.3212464-1.117726 0-1.5257436.2142608-1.5787628h.017686c.2322367-.0887496.5891449.0530192.9820048.4434597.8924154.8514774 1.6421835 2.377221 1.4812704 2.7852386-.3389323.8869195-.8387777 1.7562621-1.4992462 2.5722972-1.2496135-1.3661097-1.8741304-3.1932561-2.0350435-3.7078885.4285218-.1950762.7320822-.319268.7320822-.319268zm2.6595602 6.2444553c-.3212463-.1239036-.9640289-.1950762-1.8028066.6742664-.1249614-.1774992-.3569082-.5143442-.6961304-1.099861-.0179759-.0178651-.0179759-.0354422-.0356619-.0533073 1.356599-1.2416298 2.4276135-2.696489 2.9808066-4.1865023.2322368-.620959-.6781545-2.3063366-1.5528839-3.1399488-.5175314-.4791901-.964029-.6564011-1.3386231-.5146323-.0536377.0178652-.2678986.1063266-.4108359.3547102-.1962849.3371331-.2139709.8517655-.0533477 1.4903014-.2855845.1241918-.9996908.4258828-1.7314831.8693426-.4105458-1.0289766-.8924154-1.8983191-1.4102366-2.6434698 1.2496135-1.8804538 1.2672994-3.2108332.7141062-3.6897351-.3569081-.3195562-.8924154-.2483836-1.3565989.159634-.8924154.7805929-1.6601594.8514773-1.8744203.8514773-.8031159-.6209589-1.4992463-.9935343-1.9097922-1.1886105 1.7135072-.478902 3.0701062-1.0289765 3.5342898-1.4545711.5175313-.4791901.4998454-2.2354522 0-4.2576748-.2676087-1.2419179-.7497681-2.6610468-1.4279227-3.9205417-.4462077-.8339003-.964029-1.5433207-1.5172221-2.1109723-.5534831-.6388241-1.1782899-1.1710334-1.8207826-1.579051-1.3745748-.8514774-2.891797-1.1531683-4.5339805-.8693425-.0356618-.159634-.1426473-.5143442-.2676087-.8869196-.1606231-.478902-.3035604-.7451507-.4285217-.8869195.2678986-.159634.4641836-.4434598.5178213-.780593.0356618-.2838257-.0359518-.5676515-.2142609-.798458-.1785991-.2305185-.4285218-.3722873-.7141063-.4080176-.589145-.0708844-1.1246522.3549983-1.1959758.9402269-.0356618.2838258.0356618.5676516.2142609.7984581.178599.2305184.4285217.3725754.7141063.4080176h.0890096c-.0890096.478902.0536377 1.4015518.1429372 1.915896-1.3386231.4434598-2.4452994 1.2419179-3.302343 2.377221-.8210917 1.099861-1.4099467 2.4835476-1.713507 4.1334831-.0892996.4613249-.1429373.9402269-.196285 1.4369941-.196285.1063266-.78543.496479-.8210918 1.4012637-.0179759.7097085.374884 1.1177261.6604686 1.3128023-.374884.3016909-1.4102367 1.2064756-2.2493044 2.9272955-.6068308 1.2240527-.9817149 2.5898742-1.1243622 4.0801757-.178599 1.8625886.017686 3.8850995.5531932 6.0669561.4998454 1.9513383 1.2316376 3.5479663 2.2136425 4.7189998.8387777 1.0111113 1.8561544 1.7208199 2.9451448 2.0222227.3212463.0887495.6248067.1420569.946053.159634 1.1246522.0711725 2.2133526-.2838258 2.9631207-1.0289766.7317923-.7094203 1.0530386-1.6850895.9103913-2.6962008.213971.1950762.4282318.3722872.6604686.5322094 1.3386231 1.0111113 2.7488598 1.4367059 4.0697969 1.5078785 1.0887004.0708844 2.1060772-.0887496 2.9631207-.3195562.5175314.2308066 4.0874829 1.8095695 5.3727582 2.3417788.0713237.0354422.1426473.0354422.2142609.0533074.213971.017577.4462077-.0711726.7138164-.2308066 1.0533285-.6739781 2.3739757-2.7673733 2.4099275-3.5655433-.0716136-.5855167-.3571982-1.0644187-.8034059-1.2243409z"/>
          <path id="Fill-45" fill="#FFF" d="M16.5474041 6.8486034c-.0953224-.0954699-.2537636-.0765619-.333113.057034-.0793494.1146877-.0633764.3053175.0474036.4007873.0159729.019218 1.7606294 1.6412756 2.1254306 5.5152439.0159729.1525038.1110376.2671916.2220753.2671916.0159729 0 .0316882 0 .0476612-.00031.1267529-.018908.2220753-.1717217.2061023-.3242255-.3805165-4.14116-2.2364682-5.8394694-2.31556-5.9157213z"/>
        </g>
      </g>
    </g>
  </g>
</svg>